<svg xmlns="http://www.w3.org/2000/svg" width="506.667" height="506.667" preserveAspectRatio="xMidYMid meet" version="1.0" viewBox="0 0 380 380"><metadata>Created by potrace 1.14, written by Peter Selinger 2001-2017</metadata><g fill="#000" stroke="none"><path d="M1730 3232 c-102 -43 -323 -136 -493 -207 -169 -70 -314 -133 -322 -139 -8 -6 -100 -218 -205 -471 -105 -253 -200 -479 -211 -503 -12 -27 -17 -52 -13 -65 6 -20 37 -96 204 -497 26 -63 85 -205 130 -316 l83 -201 491 -203 c270 -112 495 -207 501 -212 20 -17 59 -8 160 37 17 7 147 61 290 120 143 58 274 112 290 120 17 7 82 34 145 59 199 81 170 48 281 316 53 129 102 246 108 260 44 104 53 127 61 145 4 11 15 36 23 55 9 19 36 85 60 145 25 61 53 127 61 148 l16 37 -124 298 c-69 163 -165 394 -214 512 l-90 215 -104 44 c-56 24 -117 50 -134 57 -212 92 -778 324 -791 324 -10 -1 -101 -36 -203 -78z m170 -230 l0 -229 -58 -16 c-62 -17 -137 -68 -172 -117 -12 -16 -26 -30 -31 -30 -9 0 -610 248 -617 255 -1 1 73 32 165 69 93 37 176 72 185 77 9 4 77 33 150 63 73 30 187 77 253 105 66 27 121 50 123 50 1 1 2 -102 2 -227z m642 -10 c169 -69 306 -127 305 -128 -1 -1 -142 -60 -313 -131 l-311 -129 -28 39 c-34 47 -101 91 -172 114 l-53 17 0 227 0 228 133 -55 c72 -30 270 -112 439 -182z m-1232 -322 c162 -67 296 -123 297 -124 1 -1 -1 -35 -4 -77 l-6 -75 -61 -17 c-33 -10 -70 -19 -81 -21 -11 -2 -58 -14 -103 -26 l-84 -21 -34 33 c-19 19 -51 37 -76 43 -42 11 -43 12 -64 80 -12 39 -38 122 -58 185 -20 63 -39 124 -42 134 -5 13 -2 17 7 14 8 -3 147 -61 309 -128z m1560 126 c0 -2 -23 -64 -51 -137 -28 -74 -60 -161 -71 -194 -12 -33 -25 -71 -31 -85 -6 -14 -18 -45 -27 -70 l-16 -45 -61 -6 c-60 -6 -106 -26 -129 -58 -13 -17 -11 -18 -155 62 l-87 47 14 45 c12 41 12 133 0 173 -5 14 48 40 297 144 298 124 317 132 317 124z m165 -243 c48 -120 93 -231 101 -248 53 -122 155 -378 151 -381 -1 -2 -86 19 -188 47 -101 27 -195 52 -208 55 -43 9 -54 21 -58 58 -3 46 -35 108 -69 135 -26 20 -26 21 -11 63 22 61 56 151 121 319 31 80 56 151 56 157 0 41 28 -14 105 -205z m-2039 14 c58 -180 61 -193 45 -207 -35 -31 -52 -69 -54 -121 l-2 -52 -155 -99 c-85 -53 -173 -109 -194 -123 -22 -13 -41 -23 -43 -21 -3 2 119 306 161 401 7 17 48 117 91 223 43 105 81 192 84 192 3 0 34 -87 67 -193z m669 -316 c17 -25 48 -59 71 -76 l40 -31 -90 -217 -90 -216 -63 0 c-34 1 -71 -2 -82 -6 -17 -5 -25 6 -59 77 -22 46 -67 140 -101 211 l-62 127 20 28 c10 15 23 43 28 62 l9 35 165 41 c143 36 165 40 174 26 6 -8 24 -35 40 -61z m696 -85 l67 -36 0 -64 c0 -68 15 -108 57 -150 14 -14 25 -27 25 -30 0 -2 -22 -51 -48 -108 -27 -56 -56 -121 -66 -143 -14 -33 -22 -40 -46 -40 -28 -1 -31 4 -101 175 -39 96 -89 216 -110 266 -22 50 -39 95 -39 99 0 4 26 32 58 61 l57 52 40 -22 c22 -13 70 -40 106 -60z m-1298 -55 c21 -10 51 -18 68 -17 31 2 32 0 111 -163 124 -257 128 -266 116 -270 -6 -2 -27 -21 -47 -42 l-36 -39 -65 26 c-253 102 -596 246 -603 253 -6 6 396 270 413 271 3 0 23 -9 43 -19z m868 -3 c25 0 58 2 75 6 28 6 30 5 58 -66 16 -40 67 -163 113 -273 l83 -200 -20 -25 c-11 -14 -24 -35 -30 -47 -9 -21 -13 -22 -218 -22 l-209 -1 -12 42 c-12 38 -37 86 -52 98 -3 3 -20 17 -37 32 l-31 26 91 221 c90 217 93 222 118 216 14 -3 46 -6 71 -7z m1058 -179 c241 -64 262 -70 256 -79 -3 -4 -15 -10 -27 -14 -13 -3 -185 -73 -383 -155 -323 -134 -362 -148 -376 -135 -21 19 -17 35 31 134 21 42 48 99 60 127 l22 51 58 1 c34 0 72 7 90 16 32 17 90 72 90 86 0 14 14 11 179 -32z m-2184 -224 c116 -48 224 -93 240 -100 17 -7 71 -30 122 -51 51 -21 90 -41 87 -46 -16 -26 -4 -123 22 -175 l27 -55 -179 -179 c-98 -98 -182 -175 -186 -171 -3 4 -42 95 -86 202 -44 107 -117 285 -162 395 -44 110 -88 214 -96 232 -16 35 -18 46 -6 40 4 -3 101 -44 217 -92z m2454 23 c-17 -40 -96 -233 -176 -428 -80 -195 -148 -360 -152 -367 -4 -7 -92 73 -232 211 -188 185 -224 225 -218 241 4 11 8 34 8 51 1 29 6 34 74 63 73 31 720 300 724 301 1 0 -12 -33 -28 -72z m-1043 -343 c8 -16 22 -35 30 -42 20 -15 28 6 -146 -413 -81 -195 -150 -364 -154 -375 l-7 -20 -12 20 c-6 11 -71 164 -143 340 l-132 320 34 28 c39 32 79 97 89 143 l6 31 210 -1 209 -1 16 -30z m654 -515 c0 -5 -188 -84 -719 -302 -79 -32 -145 -57 -147 -55 -2 2 5 26 17 53 29 69 33 78 74 179 20 50 42 104 50 120 7 17 34 82 60 145 26 63 55 133 65 155 9 22 25 61 35 88 16 42 21 47 49 48 17 0 40 4 51 9 17 7 53 -25 243 -213 122 -122 222 -224 222 -227z m-1467 338 c31 -16 62 -23 116 -24 l75 -2 137 -333 c76 -184 136 -336 134 -338 -3 -3 -358 141 -480 194 -16 7 -112 47 -212 87 l-182 74 177 182 c97 100 181 181 185 182 4 0 27 -10 50 -22z" transform="translate(0.000000,380.000000) scale(0.100000,-0.100000)"/></g></svg>